<svg width="16" height="16" viewBox="0 0 16 16" fill="none" xmlns="http://www.w3.org/2000/svg">
<g clip-path="url(#clip0)">
<path d="M14.9068 0.489823H1.38495C1.14646 0.489388 0.927823 0.618097 0.818804 0.823074C0.708281 1.03081 0.727679 1.28097 0.868877 1.47069L5.82271 8.21239C5.82436 8.21472 5.82617 8.2169 5.82782 8.21922C6.00782 8.45398 6.10511 8.73827 6.10571 9.03056V14.527C6.10466 14.6899 6.17082 14.8462 6.28961 14.9617C6.40841 15.0771 6.5699 15.1419 6.73832 15.1419C6.82403 15.1419 6.90869 15.1254 6.98779 15.0937L9.77146 14.0682C10.0209 13.9947 10.1865 13.7674 10.1865 13.4936V9.03056C10.1869 8.73842 10.2844 8.45398 10.4642 8.21922C10.4659 8.2169 10.4677 8.21472 10.4693 8.21239L15.423 1.4704C15.5642 1.28082 15.5836 1.03081 15.4731 0.823074C15.3641 0.618097 15.1454 0.489388 14.9068 0.489823ZM9.84349 7.77862C9.5668 8.14136 9.41718 8.57993 9.41628 9.03056V13.4032L6.87561 14.339V9.03056C6.87471 8.57993 6.72509 8.14136 6.44825 7.77862L1.63893 1.23361H14.653L9.84349 7.77862Z" fill="#717187"/>
</g>
<defs>
<clipPath id="clip0">
<rect width="15.1667" height="14.6522" fill="white" transform="translate(0.555542 0.489853)"/>
</clipPath>
</defs>
</svg>
