<svg width="25" height="26" viewBox="0 0 25 26" fill="none" xmlns="http://www.w3.org/2000/svg">
<ellipse cx="12.3314" cy="12.8605" rx="12.2426" ry="12.2093" fill="#C4C4C4" fill-opacity="0.3"/>
<g clip-path="url(#clip0)">
<path d="M18.8201 5.93318H4.82851C3.62133 5.93359 2.64288 6.90952 2.64233 8.11341V16.2543C2.64288 17.4582 3.62133 18.4342 4.82851 18.4345H18.8201C20.0272 18.4342 21.0057 17.4582 21.0062 16.2543V8.11341C21.0057 6.90952 20.0272 5.93359 18.8201 5.93318ZM4.82851 6.80527H18.8201C19.4498 6.80691 19.9902 7.25263 20.1099 7.86909L11.8243 12.4739L3.53867 7.86909C3.65836 7.25263 4.19876 6.80691 4.82851 6.80527ZM18.8201 17.5582H4.82851C4.10502 17.556 3.51885 16.9716 3.51681 16.25V8.85469L11.61 13.3546C11.6756 13.3905 11.7493 13.4102 11.8243 13.4114C11.8996 13.4122 11.9735 13.3926 12.0385 13.3546L20.1318 8.85469V16.25C20.1312 16.9722 19.5442 17.5575 18.8201 17.5582Z" fill="black"/>
</g>
<defs>
<clipPath id="clip0">
<rect width="19.5882" height="19.5349" fill="white" transform="translate(2.04767 2.60464)"/>
</clipPath>
</defs>
</svg>
