<svg width="28" height="28" viewBox="0 0 28 28" fill="none" xmlns="http://www.w3.org/2000/svg">
<g filter="url(#filter0_d)">
<path d="M10.9059 0H6.31281C5.03754 0 4 1.03754 4 2.31281V6.90594C4 8.18121 5.03754 9.21875 6.31281 9.21875H10.9059C12.1812 9.21875 13.2188 8.18121 13.2188 6.90594V2.31281C13.2188 1.03754 12.1812 0 10.9059 0ZM11.6562 6.90594C11.6562 7.31965 11.3196 7.65625 10.9059 7.65625H6.31281C5.8991 7.65625 5.5625 7.31965 5.5625 6.90594V2.31281C5.5625 1.8991 5.8991 1.5625 6.31281 1.5625H10.9059C11.3196 1.5625 11.6562 1.8991 11.6562 2.31281V6.90594Z" fill="#62608B"/>
<path d="M21.6562 0H17.125C15.8327 0 14.7812 1.05141 14.7812 2.34375V6.875C14.7812 8.16734 15.8327 9.21875 17.125 9.21875H21.6562C22.9486 9.21875 24 8.16734 24 6.875V2.34375C24 1.05141 22.9486 0 21.6562 0ZM22.4375 6.875C22.4375 7.30578 22.087 7.65625 21.6562 7.65625H17.125C16.6942 7.65625 16.3438 7.30578 16.3438 6.875V2.34375C16.3438 1.91297 16.6942 1.5625 17.125 1.5625H21.6562C22.087 1.5625 22.4375 1.91297 22.4375 2.34375V6.875Z" fill="#62608B"/>
<path d="M10.9059 10.7812H6.31281C5.03754 10.7812 4 11.8188 4 13.0941V17.6872C4 18.9625 5.03754 20 6.31281 20H10.9059C12.1812 20 13.2188 18.9625 13.2188 17.6872V13.0941C13.2188 11.8188 12.1812 10.7812 10.9059 10.7812ZM11.6562 17.6872C11.6562 18.1009 11.3196 18.4375 10.9059 18.4375H6.31281C5.8991 18.4375 5.5625 18.1009 5.5625 17.6872V13.0941C5.5625 12.6804 5.8991 12.3438 6.31281 12.3438H10.9059C11.3196 12.3438 11.6562 12.6804 11.6562 13.0941V17.6872Z" fill="#62608B"/>
<path d="M21.6562 10.7812H17.125C15.8327 10.7812 14.7812 11.8327 14.7812 13.125V17.6562C14.7812 18.9486 15.8327 20 17.125 20H21.6562C22.9486 20 24 18.9486 24 17.6562V13.125C24 11.8327 22.9486 10.7812 21.6562 10.7812ZM22.4375 17.6562C22.4375 18.087 22.087 18.4375 21.6562 18.4375H17.125C16.6942 18.4375 16.3438 18.087 16.3438 17.6562V13.125C16.3438 12.6942 16.6942 12.3438 17.125 12.3438H21.6562C22.087 12.3438 22.4375 12.6942 22.4375 13.125V17.6562Z" fill="#62608B"/>
</g>
<defs>
<filter id="filter0_d" x="0" y="0" width="28" height="28" filterUnits="userSpaceOnUse" color-interpolation-filters="sRGB">
<feFlood flood-opacity="0" result="BackgroundImageFix"/>
<feColorMatrix in="SourceAlpha" type="matrix" values="0 0 0 0 0 0 0 0 0 0 0 0 0 0 0 0 0 0 127 0"/>
<feOffset dy="4"/>
<feGaussianBlur stdDeviation="2"/>
<feColorMatrix type="matrix" values="0 0 0 0 0 0 0 0 0 0 0 0 0 0 0 0 0 0 0.25 0"/>
<feBlend mode="normal" in2="BackgroundImageFix" result="effect1_dropShadow"/>
<feBlend mode="normal" in="SourceGraphic" in2="effect1_dropShadow" result="shape"/>
</filter>
</defs>
</svg>
