<svg width="26" height="26" viewBox="0 0 26 26" fill="none" xmlns="http://www.w3.org/2000/svg">
<ellipse cx="13.0315" cy="12.8605" rx="12.2426" ry="12.2093" fill="#C4C4C4" fill-opacity="0.3"/>
<path d="M20.5895 3.94604C19.6022 2.96318 18.0034 2.96318 17.0161 3.94604L16.1217 4.84297L6.59997 14.3337L6.57974 14.3541C6.57484 14.3589 6.57484 14.3641 6.56962 14.3641C6.5595 14.3793 6.54433 14.3943 6.53437 14.4094C6.53437 14.4144 6.52915 14.4144 6.52915 14.4195C6.51903 14.4346 6.51413 14.4447 6.50385 14.4599C6.49895 14.4649 6.49895 14.4698 6.49389 14.475C6.48884 14.4901 6.48378 14.5002 6.47856 14.5153C6.47856 14.5202 6.47366 14.5202 6.47366 14.5254L4.36108 20.8609C4.29911 21.0413 4.34622 21.241 4.48234 21.3749C4.57798 21.469 4.70699 21.5217 4.84121 21.5212C4.89606 21.5202 4.95045 21.5117 5.00293 21.496L11.3508 19.3841C11.3557 19.3841 11.3557 19.3841 11.3609 19.3792C11.3769 19.3745 11.3922 19.3677 11.4063 19.3589C11.4102 19.3584 11.4137 19.3567 11.4165 19.354C11.4316 19.3439 11.4518 19.3336 11.467 19.3235C11.482 19.3136 11.4973 19.2985 11.5125 19.2884C11.5176 19.2832 11.5225 19.2832 11.5225 19.2783C11.5277 19.2733 11.5378 19.2684 11.5429 19.2581L21.959 8.87028C22.9446 7.88568 22.9446 6.29125 21.959 5.30681L20.5895 3.94604ZM11.1891 18.1996L7.67152 14.6918L16.4755 5.91176L19.993 9.41957L11.1891 18.1996ZM7.17606 15.6242L10.249 18.6886L5.63467 20.2208L7.17606 15.6242ZM21.2465 8.16459L20.7107 8.70395L17.193 5.19582L17.734 4.65662C18.3258 4.06697 19.2849 4.06697 19.8768 4.65662L21.2514 6.02749C21.8387 6.62029 21.8365 7.57462 21.2465 8.16459Z" fill="black"/>
</svg>
