<svg width="28" height="26" viewBox="0 0 28 26" fill="none" xmlns="http://www.w3.org/2000/svg">
<ellipse cx="15.5489" cy="12.8605" rx="12.2426" ry="12.2093" fill="#C4C4C4" fill-opacity="0.3"/>
<g clip-path="url(#clip0)">
<path d="M18.5743 7.52642H16.3802V3.95388C16.3802 3.62762 16.1151 3.36325 15.788 3.36325H4.53625C4.20917 3.36325 3.94401 3.62762 3.94401 3.95388V7.52642H1.74994C0.988002 7.52642 0.368042 8.14462 0.368042 8.90456V16.4824C0.368042 17.2422 0.988002 17.8605 1.74994 17.8605H3.94401V20.7903C3.94401 21.1166 4.20917 21.3809 4.53625 21.3809H15.7879C16.115 21.3809 16.3802 21.1166 16.3802 20.7903V17.8605H18.5742C19.3362 17.8605 19.9561 17.2422 19.9561 16.4824V8.90456C19.9562 8.14469 19.3362 7.52642 18.5743 7.52642ZM5.12849 4.54452H15.1957V7.52642H5.12849V4.54452ZM15.1957 20.1997H5.12849V14.3403H15.1957V20.1997ZM18.7717 16.4824C18.7717 16.5891 18.6813 16.6793 18.5743 16.6793H16.3802V13.7496C16.3802 13.4234 16.1151 13.159 15.788 13.159H4.53625C4.20917 13.159 3.94401 13.4234 3.94401 13.7496V16.6793H1.74994C1.64294 16.6793 1.55253 16.5891 1.55253 16.4824V8.90456C1.55253 8.79778 1.64294 8.70768 1.74994 8.70768H4.53625H15.7879H18.5742C18.6812 8.70768 18.7716 8.79778 18.7716 8.90456V16.4824H18.7717Z" fill="black"/>
<path d="M15.7879 11.7735C16.2532 11.7735 16.6303 11.3973 16.6303 10.9333C16.6303 10.4694 16.2532 10.0932 15.7879 10.0932C15.3227 10.0932 14.9455 10.4694 14.9455 10.9333C14.9455 11.3973 15.3227 11.7735 15.7879 11.7735Z" fill="black"/>
<path d="M12.8566 15.5058H7.46761C7.14053 15.5058 6.87537 15.7702 6.87537 16.0964C6.87537 16.4227 7.14053 16.687 7.46761 16.687H12.8566C13.1836 16.687 13.4488 16.4227 13.4488 16.0964C13.4488 15.7702 13.1837 15.5058 12.8566 15.5058Z" fill="black"/>
<path d="M12.8566 17.8526H7.46761C7.14053 17.8526 6.87537 18.117 6.87537 18.4433C6.87537 18.7695 7.14053 19.0339 7.46761 19.0339H12.8566C13.1836 19.0339 13.4488 18.7695 13.4488 18.4433C13.4488 18.117 13.1837 17.8526 12.8566 17.8526Z" fill="black"/>
</g>
<defs>
<clipPath id="clip0">
<rect width="19.5882" height="19.5349" fill="white" transform="translate(0.368042 2.60464)"/>
</clipPath>
</defs>
</svg>
