<svg width="26" height="26" viewBox="0 0 26 26" fill="none" xmlns="http://www.w3.org/2000/svg">
<ellipse cx="13.0135" cy="12.8605" rx="12.2426" ry="12.2093" fill="#C4C4C4" fill-opacity="0.3"/>
<g clip-path="url(#clip0)">
<path d="M16.2051 9.32828C15.9518 9.32828 15.7464 9.52284 15.7464 9.76289V17.9772C15.7464 18.217 15.9518 18.4118 16.2051 18.4118C16.4585 18.4118 16.6639 18.217 16.6639 17.9772V9.76289C16.6639 9.52284 16.4585 9.32828 16.2051 9.32828Z" fill="black"/>
<path d="M10.7921 9.32828C10.5387 9.32828 10.3333 9.52284 10.3333 9.76289V17.9772C10.3333 18.217 10.5387 18.4118 10.7921 18.4118C11.0454 18.4118 11.2508 18.217 11.2508 17.9772V9.76289C11.2508 9.52284 11.0454 9.32828 10.7921 9.32828Z" fill="black"/>
<path d="M6.8469 8.12948V18.8375C6.8469 19.4704 7.09185 20.0648 7.51977 20.4912C7.94572 20.9189 8.53849 21.1617 9.15886 21.1627H17.8383C18.4589 21.1617 19.0516 20.9189 19.4774 20.4912C19.9053 20.0648 20.1503 19.4704 20.1503 18.8375V8.12948C21.0009 7.91556 21.5521 7.13699 21.4383 6.31003C21.3244 5.48324 20.5809 4.86477 19.7007 4.8646H17.352V4.32133C17.3547 3.86447 17.164 3.42578 16.8226 3.10304C16.4813 2.78048 16.0175 2.60086 15.5353 2.6046H11.4619C10.9797 2.60086 10.5159 2.78048 10.1745 3.10304C9.83317 3.42578 9.64251 3.86447 9.6452 4.32133V4.8646H7.29649C6.41629 4.86477 5.67281 5.48324 5.55885 6.31003C5.44506 7.13699 5.99626 7.91556 6.8469 8.12948ZM17.8383 20.2934H9.15886C8.37453 20.2934 7.76437 19.6551 7.76437 18.8375V8.16767H19.2328V18.8375C19.2328 19.6551 18.6227 20.2934 17.8383 20.2934ZM10.5627 4.32133C10.5596 4.09502 10.6535 3.8772 10.823 3.71745C10.9924 3.55769 11.2228 3.46992 11.4619 3.47383H15.5353C15.7744 3.46992 16.0048 3.55769 16.1741 3.71745C16.3437 3.87703 16.4376 4.09502 16.4345 4.32133V4.8646H10.5627V4.32133ZM7.29649 5.73383H19.7007C20.1567 5.73383 20.5264 6.08407 20.5264 6.51613C20.5264 6.9482 20.1567 7.29844 19.7007 7.29844H7.29649C6.84044 7.29844 6.47077 6.9482 6.47077 6.51613C6.47077 6.08407 6.84044 5.73383 7.29649 5.73383Z" fill="black"/>
<path d="M13.4986 9.32828C13.2452 9.32828 13.0399 9.52284 13.0399 9.76289V17.9772C13.0399 18.217 13.2452 18.4118 13.4986 18.4118C13.752 18.4118 13.9573 18.217 13.9573 17.9772V9.76289C13.9573 9.52284 13.752 9.32828 13.4986 9.32828Z" fill="black"/>
</g>
<defs>
<clipPath id="clip0">
<rect width="19.5882" height="18.5581" fill="white" transform="translate(3.70917 2.60464)"/>
</clipPath>
</defs>
</svg>
