<svg width="16" height="16" viewBox="0 0 16 16" fill="none" xmlns="http://www.w3.org/2000/svg">
<path d="M12.0705 9.95254C11.6476 9.54519 10.9717 9.52031 10.518 9.89529L9.76195 9.16503C10.6172 8.21699 11.0878 7.00185 11.0866 5.74442C11.0866 2.86551 8.66226 0.523254 5.68226 0.523254C2.70227 0.523254 0.277771 2.86537 0.277771 5.74442C0.277771 8.62334 2.70212 10.9654 5.68226 10.9654C6.98384 10.9666 8.24195 10.5121 9.22312 9.68572L9.97918 10.4161C9.59088 10.8545 9.61678 11.5076 10.0384 11.9161L13.3004 15.0674C13.4493 15.2113 13.6907 15.2113 13.8395 15.0674L15.3327 13.6247C15.4816 13.481 15.4816 13.2479 15.3327 13.104L12.0705 9.95254ZM5.68241 10.229C3.11856 10.2291 1.04008 8.22131 1.04008 5.74442C1.03993 3.26754 3.11826 1.2597 5.68211 1.2597C8.24597 1.2597 10.3243 3.26754 10.3243 5.74442C10.3215 8.22001 8.24478 10.2263 5.68226 10.229H5.68241ZM13.5698 14.2862L10.5773 11.3952C10.4287 11.2514 10.4287 11.0184 10.5773 10.8745L10.9925 10.4734C11.1414 10.3298 11.3826 10.3298 11.5315 10.4734L14.524 13.3644L13.5698 14.2862Z" fill="#717187"/>
</svg>
