<svg width="595" height="700" viewBox="0 0 595 700" fill="none" xmlns="http://www.w3.org/2000/svg">
<rect x="6" width="589" height="700" fill="#837DF0"/>
<path opacity="0.5" d="M477.061 144.243H123.939V556.449H477.061V144.243Z" fill="#6C63FF"/>
<path d="M601 169.681H411.976V533.088H601V169.681Z" fill="url(#paint0_linear)"/>
<path d="M189.024 171.066H0V534.472H189.024V171.066Z" fill="url(#paint1_linear)"/>
<path d="M594.768 175.219H418.207V525.473H594.768V175.219Z" fill="#6C63FF"/>
<path d="M6.23157 525.473H182.793L182.793 175.219H6.23157L6.23157 525.473Z" fill="#6C63FF"/>
<path d="M153.712 207.06H35.3122V228.518H153.712V207.06Z" fill="url(#paint2_linear)"/>
<path d="M566.38 239.594H447.98V261.052H566.38V239.594Z" fill="url(#paint3_linear)"/>
<path d="M565.688 272.819H447.288V294.278H565.688V272.819Z" fill="url(#paint4_linear)"/>
<path d="M565.688 306.045H447.288V327.503H565.688V306.045Z" fill="url(#paint5_linear)"/>
<path d="M565.688 339.271H447.288V360.729H565.688V339.271Z" fill="url(#paint6_linear)"/>
<path d="M565.688 372.497H447.288V393.955H565.688V372.497Z" fill="url(#paint7_linear)"/>
<path d="M565.688 405.722H447.288V427.181H565.688V405.722Z" fill="url(#paint8_linear)"/>
<path d="M565.688 438.948H447.288V460.406H565.688V438.948Z" fill="url(#paint9_linear)"/>
<path d="M565.688 472.174H447.288V493.632H565.688V472.174Z" fill="url(#paint10_linear)"/>
<path d="M565.688 207.06H447.288V228.518H565.688V207.06Z" fill="url(#paint11_linear)"/>
<path d="M153.712 240.978H35.3122V262.436H153.712V240.978Z" fill="url(#paint12_linear)"/>
<path d="M153.712 273.512H35.3122V294.97H153.712V273.512Z" fill="url(#paint13_linear)"/>
<path d="M153.712 306.045H35.3122V327.503H153.712V306.045Z" fill="url(#paint14_linear)"/>
<path d="M153.712 339.271H35.3122V360.729H153.712V339.271Z" fill="url(#paint15_linear)"/>
<path d="M153.712 372.497H35.3122V393.955H153.712V372.497Z" fill="url(#paint16_linear)"/>
<path d="M151.635 209.829H38.0818V226.442H151.635V209.829Z" fill="white"/>
<path d="M151.289 242.363H37.7356V258.975H151.289V242.363Z" fill="white"/>
<path d="M151.289 275.588H37.7356V292.201H151.289V275.588Z" fill="white"/>
<path d="M151.289 308.814H37.7356V325.427H151.289V308.814Z" fill="white"/>
<path d="M151.289 342.04H37.7356V358.653H151.289V342.04Z" fill="white"/>
<path d="M151.289 375.265H37.7356V391.878H151.289V375.265Z" fill="white"/>
<path d="M153.712 405.722H35.3122V427.181H153.712V405.722Z" fill="url(#paint17_linear)"/>
<path d="M151.289 408.491H37.7356V425.104H151.289V408.491Z" fill="white"/>
<path d="M151.289 408.491H37.7356V425.104H151.289V408.491Z" fill="white"/>
<path d="M151.289 441.717H37.7356V458.33H151.289V441.717Z" fill="white"/>
<path d="M151.289 474.943H37.7356V491.555H151.289V474.943Z" fill="white"/>
<path d="M563.611 209.137H450.058V225.75H563.611V209.137Z" fill="white"/>
<path d="M563.611 242.363H450.058V258.975H563.611V242.363Z" fill="white"/>
<path d="M563.611 275.588H450.058V292.201H563.611V275.588Z" fill="white"/>
<path d="M563.611 308.814H450.058V325.427H563.611V308.814Z" fill="white"/>
<path d="M563.611 342.04H450.058V358.653H563.611V342.04Z" fill="white"/>
<path d="M563.611 375.265H450.058V391.878H563.611V375.265Z" fill="white"/>
<path d="M563.611 408.491H450.058V425.104H563.611V408.491Z" fill="white"/>
<path d="M563.611 441.717H450.058V458.33H563.611V441.717Z" fill="white"/>
<path d="M563.611 474.943H450.058V491.555H563.611V474.943Z" fill="white"/>
<path d="M508.911 543.471H91.3963V569.774H508.911V543.471Z" fill="url(#paint18_linear)"/>
<path d="M506.142 546.239H94.8583V567.005H506.142V546.239Z" fill="#6C63FF"/>
<path d="M509.604 131.61H92.7811V158.606H509.604V131.61Z" fill="url(#paint19_linear)"/>
<path d="M506.142 133.687H94.8583V154.453H506.142V133.687Z" fill="#6C63FF"/>
<path opacity="0.5" d="M402.282 175.219H200.103V525.473H402.282V175.219Z" fill="#263238"/>
<path d="M456.746 327.538C461.593 334.031 454.337 341.7 454.337 341.7L455.555 342.123C453.762 344.109 446.679 353.073 419.371 393.623C384.405 445.538 337.287 458.489 337.287 458.489C331.562 454.017 325.05 450.657 318.087 448.583V443.683C326.984 441.059 335.113 436.322 341.781 429.876C348.449 423.429 353.456 415.465 356.376 406.664C360.545 398.414 362.713 389.298 362.705 380.055C362.705 346.83 335.168 319.875 301.206 319.875C267.244 319.875 239.708 346.823 239.708 380.055C239.699 389.298 241.867 398.414 246.036 406.664C248.956 415.465 253.964 423.429 260.632 429.876C267.299 436.322 275.429 441.059 284.326 443.683V448.583C277.363 450.657 270.851 454.017 265.125 458.489C265.125 458.489 217.987 445.524 183.021 393.609C155.713 353.06 148.63 344.089 146.836 342.109L148.055 341.687C148.055 341.687 140.82 334.017 145.646 327.524C150.472 321.031 113.691 313.362 117.908 327.524C122.125 341.687 127.553 348.768 127.553 348.768C127.553 348.768 204.548 470.166 244.741 490.226C243.792 494.34 243.313 498.548 243.315 502.769V526.373H359.07V502.769C359.072 498.548 358.593 494.34 357.644 490.226C397.803 470.153 474.832 348.775 474.832 348.775C474.832 348.775 480.26 341.694 484.477 327.531C488.693 313.369 451.92 321.045 456.746 327.538Z" fill="url(#paint20_linear)"/>
<path d="M301.192 442.084C333.719 442.084 360.088 415.723 360.088 383.205C360.088 350.687 333.719 324.326 301.192 324.326C268.665 324.326 242.297 350.687 242.297 383.205C242.297 415.723 268.665 442.084 301.192 442.084Z" fill="#263238"/>
<path d="M301.192 447.864C331.807 447.864 356.626 423.052 356.626 392.446C356.626 361.839 331.807 337.028 301.192 337.028C270.577 337.028 245.759 361.839 245.759 392.446C245.759 423.052 270.577 447.864 301.192 447.864Z" fill="#F8C198"/>
<path d="M279.25 387.247C283.078 387.247 286.181 384.145 286.181 380.318C286.181 376.492 283.078 373.39 279.25 373.39C275.423 373.39 272.319 376.492 272.319 380.318C272.319 384.145 275.423 387.247 279.25 387.247Z" fill="#263238"/>
<path d="M324.291 387.247C328.119 387.247 331.222 384.145 331.222 380.318C331.222 376.492 328.119 373.39 324.291 373.39C320.463 373.39 317.36 376.492 317.36 380.318C317.36 384.145 320.463 387.247 324.291 387.247Z" fill="#263238"/>
<path d="M317.36 417.836C317.36 421.989 310.124 428.807 301.192 428.807C292.26 428.807 285.025 421.989 285.025 417.836C285.025 413.683 292.26 413.793 301.192 413.793C310.124 413.793 317.36 413.683 317.36 417.836Z" fill="white"/>
<path d="M280.981 382.63C282.259 382.63 283.294 381.595 283.294 380.318C283.294 379.042 282.259 378.006 280.981 378.006C279.704 378.006 278.669 379.042 278.669 380.318C278.669 381.595 279.704 382.63 280.981 382.63Z" fill="white"/>
<path d="M326.596 382.63C327.874 382.63 328.909 381.595 328.909 380.318C328.909 379.042 327.874 378.006 326.596 378.006C325.319 378.006 324.284 379.042 324.284 380.318C324.284 381.595 325.319 382.63 326.596 382.63Z" fill="white"/>
<path d="M306.732 361.684C303.353 361.684 300.32 358.749 299.96 355.392C299.843 353.704 300.245 352.021 301.111 350.568C301.977 349.114 303.266 347.96 304.807 347.259C305.122 347.096 305.47 347.006 305.825 346.996C306.988 346.996 307.562 348.38 307.936 349.481C309.1 352.886 311.163 356.209 314.403 357.787C317.644 359.365 322.172 358.556 323.882 355.385C319.299 353.343 317.339 346.933 320.005 342.683C321.036 341.043 322.643 339.652 322.968 337.741C323.564 334.28 319.769 331.76 316.411 330.722C306.718 327.725 272.929 327.393 271.066 341.853C269.114 357.109 296.089 363.706 306.732 361.684Z" fill="#263238"/>
<path d="M251.663 402.168C253.441 401.466 253.27 396.81 251.28 391.767C249.29 386.724 246.235 383.205 244.456 383.906C242.678 384.608 242.849 389.265 244.839 394.307C246.829 399.35 249.884 402.869 251.663 402.168Z" fill="#F8C198"/>
<path d="M357.529 394.271C359.519 389.228 359.691 384.571 357.912 383.87C356.133 383.168 353.078 386.688 351.088 391.73C349.098 396.773 348.927 401.43 350.706 402.131C352.484 402.833 355.539 399.313 357.529 394.271Z" fill="#F8C198"/>
<path d="M335.75 459.95C335.75 459.95 380.873 447.282 414.365 396.481C447.856 345.681 449.587 345.542 449.587 345.542L467.485 352.61C467.485 352.61 384.342 486.537 348.545 493.466C312.748 500.395 335.75 459.95 335.75 459.95Z" fill="#FF9800"/>
<path d="M447.863 345.688C447.863 345.688 454.787 338.184 450.175 331.844C445.564 325.503 480.779 318 476.736 331.844C472.692 345.688 467.499 352.61 467.499 352.61L447.863 345.688Z" fill="#F8C198"/>
<path d="M266.635 459.95C266.635 459.95 221.511 447.282 188.02 396.481C154.529 345.681 152.798 345.542 152.798 345.542L134.9 352.61C134.9 352.61 218.049 486.537 253.853 493.466C289.657 500.395 266.635 459.95 266.635 459.95Z" fill="#FF9800"/>
<path d="M154.522 345.688C154.522 345.688 147.598 338.184 152.209 331.844C156.821 325.503 121.606 318 125.649 331.844C129.693 345.688 134.886 352.61 134.886 352.61L154.522 345.688Z" fill="#F8C198"/>
<g opacity="0.2">
<path opacity="0.2" d="M320.088 334.266C319.756 336.177 318.149 337.561 317.124 339.209C314.791 342.933 316.003 348.318 319.423 350.976C318.931 349.73 318.729 348.388 318.831 347.053C318.933 345.717 319.336 344.422 320.012 343.265C321.043 341.624 322.65 340.233 322.975 338.323C323.349 336.156 321.999 334.356 320.116 333.062C320.165 333.462 320.156 333.868 320.088 334.266Z" fill="white"/>
<path opacity="0.2" d="M305.665 347.584C305.444 347.065 305.236 346.539 305.056 346.013C304.682 344.912 304.107 343.562 302.944 343.528C302.589 343.538 302.242 343.628 301.926 343.791C300.386 344.492 299.097 345.646 298.23 347.1C297.364 348.553 296.963 350.236 297.08 351.924C297.208 352.942 297.55 353.922 298.084 354.798C298.617 355.675 299.33 356.429 300.175 357.012C300.077 356.67 300.007 356.32 299.967 355.967C299.85 354.279 300.252 352.596 301.118 351.142C301.984 349.689 303.273 348.534 304.814 347.833C305.082 347.704 305.37 347.619 305.665 347.584Z" fill="white"/>
<path opacity="0.2" d="M300.784 358.549C292.364 358.902 278.78 355.69 272.084 348.858C277.083 359.49 297.737 363.941 306.704 362.231C305.481 362.19 304.29 361.828 303.251 361.182C302.212 360.536 301.361 359.627 300.784 358.549Z" fill="white"/>
<path opacity="0.2" d="M320.358 352.845C318.336 355.219 314.417 355.718 311.53 354.312C310.587 353.848 309.722 353.238 308.968 352.506C310.087 355.003 312.003 357.058 314.417 358.348C317.658 359.919 322.186 359.116 323.896 355.946C322.44 355.279 321.21 354.201 320.358 352.845Z" fill="white"/>
</g>
<path opacity="0.2" d="M465.186 352.61C465.186 352.61 382.037 486.537 346.198 493.466C344.127 493.88 342.028 494.137 339.918 494.234C342.803 494.316 345.687 494.059 348.511 493.466C384.315 486.544 467.464 352.61 467.464 352.61L465.609 351.952C465.353 352.388 465.186 352.61 465.186 352.61Z" fill="white"/>
<path opacity="0.2" d="M137.198 352.61C137.198 352.61 220.348 486.537 256.187 493.466C258.258 493.88 260.357 494.137 262.467 494.234C259.582 494.316 256.698 494.059 253.874 493.466C218.07 486.544 134.92 352.61 134.92 352.61L136.776 351.952C137.032 352.388 137.198 352.61 137.198 352.61Z" fill="white"/>
<path d="M301.192 447.864C308.472 447.864 315.68 449.297 322.406 452.082C329.131 454.867 335.242 458.949 340.39 464.095C345.537 469.241 349.62 475.35 352.406 482.074C355.192 488.797 356.626 496.004 356.626 503.281V526.373H245.759V503.281C245.759 496.004 247.193 488.797 249.979 482.074C252.765 475.35 256.848 469.241 261.995 464.095C267.143 458.949 273.254 454.867 279.979 452.082C286.704 449.297 293.913 447.864 301.192 447.864Z" fill="#FF9800"/>
<path opacity="0.2" d="M301.767 448.154C299.75 448.154 297.735 448.263 295.729 448.48C296.422 448.48 297.052 448.438 297.723 448.438C312.425 448.438 326.525 454.277 336.921 464.67C347.316 475.062 353.157 489.158 353.157 503.856V526.657H357.2V503.572C357.2 488.874 351.36 474.779 340.964 464.386C330.569 453.993 316.469 448.154 301.767 448.154Z" fill="white"/>
<path opacity="0.2" d="M300.618 448.154C302.635 448.154 304.65 448.263 306.655 448.48C305.963 448.48 305.333 448.438 304.661 448.438C289.96 448.438 275.86 454.277 265.464 464.67C255.068 475.062 249.228 489.158 249.228 503.856V526.657H245.184V503.572C245.184 488.874 251.025 474.779 261.42 464.386C271.816 453.993 285.916 448.154 300.618 448.154Z" fill="white"/>
<path d="M317.36 448.729C317.36 439.802 310.121 432.566 301.192 432.566C292.263 432.566 285.025 439.802 285.025 448.729V455.367C285.025 464.294 292.263 471.53 301.192 471.53C310.121 471.53 317.36 464.294 317.36 455.367V448.729Z" fill="#F8C198"/>
<defs>
<linearGradient id="paint0_linear" x1="506.488" y1="533.088" x2="506.488" y2="169.681" gradientUnits="userSpaceOnUse">
<stop stop-color="#808080" stop-opacity="0.25"/>
<stop offset="0.54" stop-color="#808080" stop-opacity="0.12"/>
<stop offset="1" stop-color="#808080" stop-opacity="0.1"/>
</linearGradient>
<linearGradient id="paint1_linear" x1="25801.8" y1="229844" x2="25801.8" y2="39055.5" gradientUnits="userSpaceOnUse">
<stop stop-color="#808080" stop-opacity="0.25"/>
<stop offset="0.54" stop-color="#808080" stop-opacity="0.12"/>
<stop offset="1" stop-color="#808080" stop-opacity="0.1"/>
</linearGradient>
<linearGradient id="paint2_linear" x1="94.5121" y1="228.518" x2="94.5121" y2="207.06" gradientUnits="userSpaceOnUse">
<stop stop-opacity="0.12"/>
<stop offset="0.55" stop-opacity="0.09"/>
<stop offset="1" stop-opacity="0.02"/>
</linearGradient>
<linearGradient id="paint3_linear" x1="87175.8" y1="5325.21" x2="87175.8" y2="4660" gradientUnits="userSpaceOnUse">
<stop stop-opacity="0.12"/>
<stop offset="0.55" stop-opacity="0.09"/>
<stop offset="1" stop-opacity="0.02"/>
</linearGradient>
<linearGradient id="paint4_linear" x1="87056.7" y1="6388.43" x2="87056.7" y2="5723.22" gradientUnits="userSpaceOnUse">
<stop stop-opacity="0.12"/>
<stop offset="0.55" stop-opacity="0.09"/>
<stop offset="1" stop-opacity="0.02"/>
</linearGradient>
<linearGradient id="paint5_linear" x1="87056.7" y1="7451.65" x2="87056.7" y2="6786.45" gradientUnits="userSpaceOnUse">
<stop stop-opacity="0.12"/>
<stop offset="0.55" stop-opacity="0.09"/>
<stop offset="1" stop-opacity="0.02"/>
</linearGradient>
<linearGradient id="paint6_linear" x1="87056.7" y1="8514.86" x2="87056.7" y2="7849.66" gradientUnits="userSpaceOnUse">
<stop stop-opacity="0.12"/>
<stop offset="0.55" stop-opacity="0.09"/>
<stop offset="1" stop-opacity="0.02"/>
</linearGradient>
<linearGradient id="paint7_linear" x1="87056.7" y1="9578.09" x2="87056.7" y2="8912.88" gradientUnits="userSpaceOnUse">
<stop stop-opacity="0.12"/>
<stop offset="0.55" stop-opacity="0.09"/>
<stop offset="1" stop-opacity="0.02"/>
</linearGradient>
<linearGradient id="paint8_linear" x1="87056.7" y1="10641.3" x2="87056.7" y2="9976.1" gradientUnits="userSpaceOnUse">
<stop stop-opacity="0.12"/>
<stop offset="0.55" stop-opacity="0.09"/>
<stop offset="1" stop-opacity="0.02"/>
</linearGradient>
<linearGradient id="paint9_linear" x1="87056.7" y1="11704.5" x2="87056.7" y2="11039.3" gradientUnits="userSpaceOnUse">
<stop stop-opacity="0.12"/>
<stop offset="0.55" stop-opacity="0.09"/>
<stop offset="1" stop-opacity="0.02"/>
</linearGradient>
<linearGradient id="paint10_linear" x1="87056.7" y1="12767.8" x2="87056.7" y2="12102.5" gradientUnits="userSpaceOnUse">
<stop stop-opacity="0.12"/>
<stop offset="0.55" stop-opacity="0.09"/>
<stop offset="1" stop-opacity="0.02"/>
</linearGradient>
<linearGradient id="paint11_linear" x1="87056.7" y1="207.06" x2="87056.7" y2="207.06" gradientUnits="userSpaceOnUse">
<stop stop-opacity="0.12"/>
<stop offset="0.55" stop-opacity="0.09"/>
<stop offset="1" stop-opacity="0.02"/>
</linearGradient>
<linearGradient id="paint12_linear" x1="6073.7" y1="5036.9" x2="26320.1" y2="5036.9" gradientUnits="userSpaceOnUse">
<stop stop-opacity="0.12"/>
<stop offset="0.55" stop-opacity="0.09"/>
<stop offset="1" stop-opacity="0.02"/>
</linearGradient>
<linearGradient id="paint13_linear" x1="6073.7" y1="6077.97" x2="26320.1" y2="6077.97" gradientUnits="userSpaceOnUse">
<stop stop-opacity="0.12"/>
<stop offset="0.55" stop-opacity="0.09"/>
<stop offset="1" stop-opacity="0.02"/>
</linearGradient>
<linearGradient id="paint14_linear" x1="6073.7" y1="7119.05" x2="26320.1" y2="7119.05" gradientUnits="userSpaceOnUse">
<stop stop-opacity="0.12"/>
<stop offset="0.55" stop-opacity="0.09"/>
<stop offset="1" stop-opacity="0.02"/>
</linearGradient>
<linearGradient id="paint15_linear" x1="6073.7" y1="8182.26" x2="26320.1" y2="8182.26" gradientUnits="userSpaceOnUse">
<stop stop-opacity="0.12"/>
<stop offset="0.55" stop-opacity="0.09"/>
<stop offset="1" stop-opacity="0.02"/>
</linearGradient>
<linearGradient id="paint16_linear" x1="6073.7" y1="9245.48" x2="26320.1" y2="9245.48" gradientUnits="userSpaceOnUse">
<stop stop-opacity="0.12"/>
<stop offset="0.55" stop-opacity="0.09"/>
<stop offset="1" stop-opacity="0.02"/>
</linearGradient>
<linearGradient id="paint17_linear" x1="6073.7" y1="10308.7" x2="26320.1" y2="10308.7" gradientUnits="userSpaceOnUse">
<stop stop-opacity="0.12"/>
<stop offset="0.55" stop-opacity="0.09"/>
<stop offset="1" stop-opacity="0.02"/>
</linearGradient>
<linearGradient id="paint18_linear" x1="55203.4" y1="18009.1" x2="306965" y2="18009.1" gradientUnits="userSpaceOnUse">
<stop stop-color="#808080" stop-opacity="0.25"/>
<stop offset="0.54" stop-color="#808080" stop-opacity="0.12"/>
<stop offset="1" stop-color="#808080" stop-opacity="0.1"/>
</linearGradient>
<linearGradient id="paint19_linear" x1="181411" y1="2534.25" x2="181411" y2="1481.41" gradientUnits="userSpaceOnUse">
<stop stop-color="#808080" stop-opacity="0.25"/>
<stop offset="0.54" stop-color="#808080" stop-opacity="0.12"/>
<stop offset="1" stop-color="#808080" stop-opacity="0.1"/>
</linearGradient>
<linearGradient id="paint20_linear" x1="220831" y1="146104" x2="220831" y2="84298.9" gradientUnits="userSpaceOnUse">
<stop stop-color="#808080" stop-opacity="0.25"/>
<stop offset="0.54" stop-color="#808080" stop-opacity="0.12"/>
<stop offset="1" stop-color="#808080" stop-opacity="0.1"/>
</linearGradient>
</defs>
</svg>
